<?xml version="1.0" encoding="UTF-8" standalone="no"?>
<svg
   xmlns:osb="http://www.openswatchbook.org/uri/2009/osb"
   xmlns:dc="http://purl.org/dc/elements/1.1/"
   xmlns:cc="http://creativecommons.org/ns#"
   xmlns:rdf="http://www.w3.org/1999/02/22-rdf-syntax-ns#"
   xmlns:svg="http://www.w3.org/2000/svg"
   xmlns="http://www.w3.org/2000/svg"
   xmlns:sodipodi="http://sodipodi.sourceforge.net/DTD/sodipodi-0.dtd"
   xmlns:inkscape="http://www.inkscape.org/namespaces/inkscape"
   version="1.0"
   width="128.000000pt"
   height="128.000000pt"
   viewBox="0 0 128.000000 128.000000"
   preserveAspectRatio="xMidYMid meet"
   id="svg36"
   sodipodi:docname="Untitled-3 (3).svg"
   inkscape:version="1.0.1 (3bc2e813f5, 2020-09-07)">
  <defs
     id="defs40">
    <linearGradient
       id="linearGradient2919"
       osb:paint="solid">
      <stop
         style="stop-color:#000000;stop-opacity:1;"
         offset="0"
         id="stop2917" />
    </linearGradient>
  </defs>
  <sodipodi:namedview
     pagecolor="#ffffff"
     bordercolor="#666666"
     borderopacity="1"
     objecttolerance="10"
     gridtolerance="10"
     guidetolerance="10"
     inkscape:pageopacity="0"
     inkscape:pageshadow="2"
     inkscape:window-width="2560"
     inkscape:window-height="1377"
     id="namedview38"
     showgrid="false"
     inkscape:zoom="5.6568542"
     inkscape:cx="145.69641"
     inkscape:cy="80.755639"
     inkscape:window-x="-8"
     inkscape:window-y="-8"
     inkscape:window-maximized="1"
     inkscape:current-layer="svg36" />
  <metadata
     id="metadata26">
Created by potrace 1.16, written by Peter Selinger 2001-2019
<rdf:RDF>
  <cc:Work
     rdf:about="">
    <dc:format>image/svg+xml</dc:format>
    <dc:type
       rdf:resource="http://purl.org/dc/dcmitype/StillImage" />
    <dc:title></dc:title>
  </cc:Work>
</rdf:RDF>
</metadata>
  <path
     style="fill:#920000;fill-opacity:0.851406;stroke:#000000;stroke-width:0.744734;stroke-miterlimit:4;stroke-dasharray:none;stroke-opacity:1"
     d="m 34.57721,116.27107 v -6.04166 h -9.027469 -9.027467 v -7.48072 -7.480716 l -5.000113,-0.0879 C 8.7721019,95.131716 5.1876648,95.092189 3.5567481,95.092189 H 0.59144513 L 0.59140542,76.336513 C 0.59138358,66.020797 0.55161309,46.421951 0.50302435,32.783426 L 0.41466315,7.9861046 H 64.077221 127.73979 l 0.0813,25.8595884 c 0.0447,14.222774 0.11695,33.851496 0.16057,43.619382 l 0.0792,17.759797 h -8.17587 -8.17597 v 7.502268 7.50227 h -9.02746 -9.027478 v 6.04166 6.04164 H 64.115619 34.57721 Z m 45.66838,-14.07506 v -7.502277 h 8.961089 8.961097 V 88.71848 82.743223 h 9.027494 9.02744 V 51.605488 20.467755 H 94.64972 73.076716 V 39.98693 59.506107 H 64.115629 55.154531 V 39.98693 20.467755 H 33.581538 12.008534 v 31.137733 31.137735 h 9.027479 9.027469 v 5.975257 5.975253 h 8.961087 8.961087 v 7.502277 7.50227 H 64.115629 80.24559 Z"
     id="path871" />
  <path
     style="fill:#b1001d;fill-opacity:1;stroke:#000000;stroke-width:0.95775;stroke-miterlimit:4;stroke-dasharray:none;stroke-opacity:1"
     d="m 58.029155,97.210724 c -4.4517,-0.18905 -6.86925,-0.81162 -10.69413,-2.75397 -7.0247,-3.56727 -13.162159,-9.35882 -17.157274,-16.19026 -2.429614,-4.15452 -3.814147,-9.085709 -4.309476,-15.348754 -0.20996,-2.654776 -0.0921,-8.971812 0.202186,-10.836293 0.62936,-3.987431 1.801018,-7.298729 3.925571,-11.094303 2.808591,-5.017627 6.581553,-9.352509 11.040823,-12.685186 3.0041,-2.245139 5.57313,-3.791527 6.65296,-4.00465 0.5705,-0.112597 1.06408,0.319034 1.34418,1.175482 0.18356,0.561262 0.23524,1.371877 0.27916,4.378629 0.0547,3.742416 -0.0553,5.38443 -0.43204,6.452292 -0.31572,0.894837 -1.02365,1.828515 -2.9156,3.845309 -3.45305,3.680916 -5.14184,6.102859 -6.4156,9.200814 -3.81219,9.271744 -1.99784,19.969141 4.64441,27.3834 3.83354,4.2791 9.55583,7.56044 15.16524,8.69622 7.41733,1.50183 15.35177,-0.32015 21.513,-4.94002 1.30456,-0.97821 3.80415,-3.39365 4.8386,-4.67572 4.02187,-4.98461 6.02515,-11.108335 5.74681,-17.56718 -0.21369,-4.958826 -1.55836,-9.165218 -4.18609,-13.094904 -0.97733,-1.461563 -1.66325,-2.242712 -4.97903,-5.670229 -2.12366,-2.195229 -2.81531,-3.107671 -3.16543,-4.175955 -0.32657,-0.996408 -0.47532,-3.500872 -0.47867,-8.05901 l -0.003,-4.085847 0.2983,0.09291 c 0.78897,0.245726 3.43145,1.450696 4.51759,2.060018 1.806,1.013168 4.42623,2.772479 5.92653,3.979279 6.41124,5.15701 11.862625,13.874606 13.306335,21.278887 0.48182,2.471019 0.61154,4.173343 0.61011,8.006308 -0.001,3.844012 -0.13742,5.737706 -0.60933,8.485281 -0.92188,5.367252 -2.36728,9.154332 -4.995695,13.089142 -4.27496,6.39976 -10.13574,11.5426 -16.76799,14.71395 -2.7954,1.33668 -4.57789,1.85954 -7.39028,2.16778 -1.25186,0.13722 -13.22877,0.27354 -15.51216,0.17658 z"
     id="path875" />
</svg>
